<svg xmlns="http://www.w3.org/2000/svg" viewBox="0 0 393.98 100.13"><defs><style>.a{fill:#1b1c1d;}</style></defs><title>Anghami logo - Brandlogos.net</title><path class="a" d="M532.44,538a8.29,8.29,0,0,0,8.26-8.3A19.7,19.7,0,1,1,552,511.88v17.85a19.66,19.66,0,0,1-19.59,19.68Zm-8.27-26.15a8.26,8.26,0,1,0,8.27-8.31,8.3,8.3,0,0,0-8.27,8.31Zm68.94,0a19.59,19.59,0,1,1,39.18,0v19.28H621V511.88a8.26,8.26,0,1,0-8.27,8.3,8.14,8.14,0,0,0,5-1.72V530.9a19.11,19.11,0,0,1-5,.66,19.66,19.66,0,0,1-19.58-19.68Zm-160.73,0a19.59,19.59,0,1,1,39.18,0v19.28H460.24V511.88a8.26,8.26,0,1,0-8.26,8.3,8.16,8.16,0,0,0,5-1.72V530.9a19.19,19.19,0,0,1-5,.66,19.67,19.67,0,0,1-19.59-19.68Zm248.33,19.3V508.87a5.28,5.28,0,1,0-10.56,0v22.31H658.83V508.87a5.28,5.28,0,1,0-10.56,0v22.31H636.95V508.87a16.67,16.67,0,0,1,16.61-16.68,16.48,16.48,0,0,1,10.94,4.15A16.58,16.58,0,0,1,692,508.87v22.31Zm-102.81,0V508.87a5.28,5.28,0,1,0-10.56,0v22.31H556V481.43h11.33v11.63a16.39,16.39,0,0,1,5.28-.87,16.67,16.67,0,0,1,16.6,16.68v22.31Zm-79.86,0V508.87a5.28,5.28,0,1,0-10.55,0v22.31H476.18V508.87a16.61,16.61,0,1,1,33.21,0v22.31Zm198.45,0V494.07h11.33v37.11Zm-1.15-46.71a6.84,6.84,0,0,1,6.82-6.85h0a6.85,6.85,0,1,1-6.82,6.85ZM315,512a50.06,50.06,0,1,1,100.13,0v45.54l-6-1.11V512a44.06,44.06,0,1,0-30.5,42l10.48,2A50.09,50.09,0,0,1,315,512Zm85,42.73V512a35,35,0,1,0-21.37,32.23v6.39A40.94,40.94,0,1,1,406,512v43.84ZM391,553V512a25.82,25.82,0,1,0-12.27,22v6.77A31.85,31.85,0,1,1,396.92,512v42.15Zm-9.11-1.69V512a16.75,16.75,0,1,0-3.16,9.8v8.41A22.74,22.74,0,1,1,387.8,512v40.45Z" transform="translate(-315.01 -461.94)"/></svg>